<svg viewBox="0 0 300 280" xmlns="http://www.w3.org/2000/svg" aria-label="Live Oak">
  <path d="M145 220 L145 260 Q145 270 150 270 Q155 270 155 260 L155 220" fill="#1a5da6"/>
  <path d="M120 265 Q150 255 180 265" stroke="#1a5da6" stroke-width="4" fill="none"/>
  <ellipse cx="100" cy="190" rx="28" ry="22" fill="#1a5da6"/>
  <ellipse cx="150" cy="200" rx="28" ry="22" fill="#1a5da6"/>
  <ellipse cx="200" cy="190" rx="28" ry="22" fill="#1a5da6"/>
  <ellipse cx="80"  cy="165" rx="26" ry="20" fill="#1a5da6"/>
  <ellipse cx="120" cy="170" rx="28" ry="22" fill="#1a5da6"/>
  <ellipse cx="150" cy="175" rx="26" ry="20" fill="#1a5da6"/>
  <ellipse cx="180" cy="170" rx="28" ry="22" fill="#1a5da6"/>
  <ellipse cx="220" cy="165" rx="26" ry="20" fill="#1a5da6"/>
  <ellipse cx="90"  cy="140" rx="26" ry="20" fill="#1a5da6"/>
  <ellipse cx="130" cy="145" rx="28" ry="22" fill="#1a5da6"/>
  <ellipse cx="170" cy="145" rx="28" ry="22" fill="#1a5da6"/>
  <ellipse cx="210" cy="140" rx="26" ry="20" fill="#1a5da6"/>
  <ellipse cx="110" cy="118" rx="26" ry="20" fill="#1a5da6"/>
  <ellipse cx="150" cy="120" rx="28" ry="22" fill="#1a5da6"/>
  <ellipse cx="190" cy="118" rx="26" ry="20" fill="#1a5da6"/>
  <ellipse cx="130" cy="98"  rx="24" ry="18" fill="#1a5da6"/>
  <ellipse cx="170" cy="98"  rx="24" ry="18" fill="#1a5da6"/>
  <ellipse cx="150" cy="82"  rx="22" ry="16" fill="#1a5da6"/>
  <g opacity="0.3" fill="white">
    <ellipse cx="100" cy="185" rx="10" ry="6"/>
    <ellipse cx="200" cy="185" rx="10" ry="6"/>
    <ellipse cx="80"  cy="160" rx="9" ry="5"/>
    <ellipse cx="220" cy="160" rx="9" ry="5"/>
    <ellipse cx="130" cy="165" rx="9" ry="5"/>
    <ellipse cx="170" cy="165" rx="9" ry="5"/>
    <ellipse cx="90"  cy="135" rx="9" ry="5"/>
    <ellipse cx="210" cy="135" rx="9" ry="5"/>
    <ellipse cx="150" cy="140" rx="9" ry="5"/>
    <ellipse cx="110" cy="113" rx="8" ry="5"/>
    <ellipse cx="190" cy="113" rx="8" ry="5"/>
    <ellipse cx="150" cy="115" rx="8" ry="5"/>
    <ellipse cx="130" cy="93"  rx="7" ry="4"/>
    <ellipse cx="170" cy="93"  rx="7" ry="4"/>
    <ellipse cx="150" cy="78"  rx="7" ry="4"/>
  </g>
</svg>
